<svg width="54" height="56" viewBox="0 0 54 56" fill="none" xmlns="http://www.w3.org/2000/svg">
<path d="M2.39209 16.6826C2.39209 25.055 9.03689 33.2946 14.6185 38.7433C20.466 45.1224 29.2371 52.6974 38.4069 52.6974C46.7794 52.5645 48.9057 49.2421 50.7663 46.3184L51.0321 45.7868C51.4308 44.9895 51.5636 43.1289 50.2347 41.5342C49.0386 40.0723 43.0583 34.092 42.7925 33.8262C41.8622 32.763 39.7359 31.3012 37.4767 33.0288C36.1477 33.9591 34.0214 35.9525 33.0911 36.7499C31.4963 35.8196 28.7055 34.2249 26.845 32.6301C23.9213 30.238 21.3962 27.1814 19.0041 23.3274L18.3396 21.9984C19.137 21.0682 21.1304 18.8089 22.1936 17.48C23.9213 15.0878 22.1936 12.8286 21.3962 12.1641L21.1304 11.8983C17.1436 7.91145 14.4856 5.38642 13.6883 4.58905C12.8909 3.92457 11.9606 3.52588 11.0303 3.52588C10.1001 3.52588 9.83427 3.65877 9.30269 3.92457L9.03689 4.19036C6.11318 6.0509 2.79078 8.17724 2.65788 16.5497L2.39209 16.6826ZM9.96717 6.1838H10.1001C10.1001 6.1838 10.3659 5.91801 10.7645 5.91801C11.1632 5.91801 11.6948 6.0509 11.9606 6.44959C12.758 7.11407 15.1501 9.5062 19.2699 13.4931C19.5357 13.7589 19.6686 13.8918 19.6686 13.8918C19.9344 14.1576 20.9975 15.2207 20.2002 16.2839C19.4028 17.2142 17.9409 18.9418 15.9475 21.2011L15.4159 21.7326L16.8778 24.5235C19.4028 28.6432 22.0607 31.9656 25.2502 34.4907C27.7752 36.617 31.895 38.8762 32.6924 39.2749L33.3569 39.6736L33.8885 39.142C34.4201 38.6104 37.2109 36.0854 38.6727 34.8894C39.7359 34.092 40.7991 35.0223 41.0649 35.4209C41.0649 35.4209 41.0649 35.5538 41.3307 35.6867C45.3175 39.6736 47.8426 42.1986 48.507 42.996C48.9057 43.5276 49.0386 43.9263 49.0386 44.325L48.7728 45.1224C46.9123 47.9132 45.4504 50.3053 38.274 50.5711C29.5029 50.5711 20.5989 42.1986 16.0804 37.2815C10.7645 32.0985 4.51843 24.3906 4.51843 16.8155C4.65132 9.6391 7.17635 8.04435 9.96717 6.3167V6.1838Z" fill="#1D4291"/>
</svg>
